<svg xmlns="http://www.w3.org/2000/svg" xmlns:xlink="http://www.w3.org/1999/xlink" version="1.1" x="0px" y="0px" viewBox="0 0 100 125" style="enable-background:new 0 0 100 100;" xml:space="preserve"><style type="text/css">
	.st0{fill-rule:evenodd;clip-rule:evenodd;}
</style><g><path class="st0" d="M85.282,38.164c-0.242-4.668-0.484-9.584-0.349-14.293c0.041-1.438,0.053-2.878,0.007-4.316   c-0.034-1.064-0.135-2.301-0.615-3.265c-0.367-0.736-0.973-1.117-1.848-1.001c-0.468,0.062-0.916,0.202-1.372,0.317   C80.694,15.71,80.421,15.918,80,16.02c-1.404,0.341-2.823,0.917-4.047,1.623c-1.119,0.664-2.234,1.368-3.377,1.949   c-1.652,0.813-3.481,1.425-5.081,2.431c-0.828,0.52-1.823,1.114-2.797,1.312c-0.899,0.183-1.698,0.78-2.595,1.006   c-0.606,0.154-1.257,0.612-1.858,0.763c-0.503,0.127-0.927,0.466-1.436,0.594c-0.853,0.215-1.699,0.465-2.561,0.642   c-2.778,0.571-5.235-0.174-7.821-1.12c-0.411-0.15-0.73-0.111-1.032-0.44c-0.191-0.209-0.741-0.374-1.012-0.499   c-0.792-0.373-1.582-0.904-2.369-1.12c-0.807-0.221-1.482-0.624-2.198-0.985c-0.544-0.275-1.265-0.827-1.899-0.967   c-0.192-0.042-0.784-0.338-0.888-0.465c-0.14-0.17-0.643-0.238-0.849-0.338c-0.279-0.132-0.567-0.375-0.846-0.506   c-0.178-0.084-0.886-0.17-0.956-0.378c-0.037-0.111-0.638-0.223-0.751-0.292c-0.394-0.24-0.857-0.463-1.253-0.678   c-0.744-0.399-1.536-0.695-2.284-1.095c-1.277-0.692-2.369-1.283-3.637-2.023c-0.569-0.334-1.193-0.586-1.776-0.927   c-0.562-0.322-1.054-0.763-1.608-1.096c-0.96-0.576-4.839-2.398-4.986-0.161c-0.354,0.466-0.526,0.988-0.832,1.454   c-0.127,0.194-0.36,0.62-0.395,0.842c-0.095,0.602-0.552,1.163-0.711,1.763c-0.198,0.747-0.249,1.526-0.281,2.295   c-0.098,2.308,0.113,4.762-0.465,7.003c-0.256,1.068-0.08,2.326-0.022,3.406c0.067,1.237-0.087,2.322-0.158,3.539   c-0.167,2.906,0.014,5.769,0.069,8.667c0.013,0.679,0.032,1.359,0.083,2.037c0.031,0.413,0.199,0.863,0.085,1.266   c-0.355,1.249-0.092,2.738-0.048,4.061c0.041,1.244,0.036,2.49,0.118,3.73c0.072,1.114,0.422,2.689,0.175,3.718   c-0.112,0.449-0.024,0.994,0.086,1.437c0.132,0.525-0.078,1.113-0.097,1.644c-0.057,1.58-0.035,3.161-0.046,4.742   c-0.004,0.572-0.098,1.171-0.097,1.728c-0.008,0.694-0.095,1.417-0.082,2.113c0.021,0.897,0.129,2.403,0.793,3.084   c0.517,0.53,0.977,1.025,1.581,1.392c0.308,0.189,0.935,0.776,1.269,0.802c0.341,0.027,0.573,0.529,0.93,0.547   c0.19,0.01,1.045,0.509,1.182,0.673c0.054,0.065,0.603,0.353,0.678,0.34c0.153-0.028,1.232,0.695,1.353,0.84   c0.346,0.412,1.132,0.739,1.608,1.013c0.645,0.371,1.256,0.739,1.861,1.096c1.213,0.709,2.413,1.428,3.639,2.072   c0.482,0.253,0.958,0.507,1.438,0.758c0.183,0.096,0.816,0.254,0.903,0.417c0.054,0.101,0.948,0.568,1.127,0.588   c0.149,0.017,0.669,0.271,0.757,0.376c0.254,0.302,1.014,0.491,1.382,0.657c0.709,0.32,1.522,0.763,2.257,0.945   c0.9,0.225,1.807,0.58,2.706,0.841c1.091,0.317,2.104,1.003,3.212,1.227c0.832,0.168,1.672,0.667,2.464,0.98   c0.872,0.345,1.789,0.441,2.74,0.402c0.916-0.038,1.808,0.148,2.697-0.185c0.802-0.3,1.812-0.218,2.67-0.382   c1.561-0.299,3.004-0.991,4.511-1.281c0.404-0.078,0.892-0.163,1.06-0.368c0.031-0.038,0.562-0.262,0.587-0.259   c0.362,0.045,0.718-0.459,0.931-0.422c0.027,0.005,0.586-0.369,0.595-0.293c-0.016-0.135,1.019-0.365,1.097-0.384   c0.755-0.189,1.46-0.502,2.197-0.679c0.709-0.171,1.541-0.428,2.213-0.736c0.64-0.293,1.322-0.508,1.929-0.834   c0.576-0.309,1.098-0.453,1.727-0.622c0.259-0.069,0.765-0.555,0.968-0.527c0.065,0.009,0.316-0.124,0.385-0.213   c0.271-0.348,0.898-0.306,1.133-0.65c0.154-0.225,1.27-1.384,1.605-1.339c0.18,0.024,0.474-0.322,0.679-0.42   c0.505-0.239,1.03-0.537,1.52-0.847c0.609-0.389,1.248-0.848,2.163-1.176c0.825-0.296,1.656-0.342,2.187-1.117   c0.23-0.337,0.634-0.743,0.675-1.166c0.209-2.197,0.344-4.295,0.22-6.507c-0.067-1.195,0.108-2.382,0.031-3.578   c-0.09-1.394-0.076-2.779-0.129-4.174c-0.05-1.32-0.221-2.625-0.244-3.95c-0.02-1.186,0.264-2.362,0.215-3.524   c-0.103-2.412,0.134-4.897,0.154-7.319C85.138,42.611,85.375,40.24,85.282,38.164C85.266,37.85,85.285,38.227,85.282,38.164z    M50.287,33.233c-0.231,1.302-0.066,2.667-0.081,3.994c-0.018,1.565-0.1,3.116-0.031,4.681c0.05,1.13,0.132,2.233-0.022,3.347   c-0.067,0.484-0.095,0.97-0.104,1.457c-0.01,0.508,0.252,1.072,0.14,1.559c-0.296,1.287-0.135,2.761-0.255,4.081   c-0.09,0.993-0.243,1.991-0.307,2.986c-0.085,1.327,0.045,2.635,0.01,3.962c-0.018,0.691-0.044,1.383-0.022,2.074   c0.008,0.267-0.136,1.763-0.002,1.878c0.351,0.3-0.016,2.085-0.02,2.563c-0.009,0.959-0.221,1.806-0.15,2.795   c0.213,2.974-0.205,6-0.353,8.976c-0.065,1.303,0.189,2.66,0.07,3.94c-0.064,0.695-0.151,1.182-0.921,0.966   c-0.68-0.19-1.267-0.605-1.934-0.83c-0.28-0.094-2.633-0.603-2.62-0.716c0.016-0.14-1.406-0.574-1.639-0.643   c-0.377-0.111-1.134-0.613-1.41-0.572c-0.065,0.01-0.918-0.405-0.95-0.559c-0.022-0.107-1.464-0.808-1.588-0.789   c-0.225,0.034-1.338-0.557-1.59-0.761c-0.182-0.147-0.65-0.436-0.778-0.418c-0.139,0.019-0.825-0.525-1.029-0.642   c-0.45-0.256-0.842-0.534-1.251-0.795c-0.237-0.15-0.637-0.283-0.93-0.421c-0.209-0.097-0.503-0.408-0.761-0.421   c-0.089-0.005-0.671-0.415-0.676-0.381c0.016-0.117-1.916-1.261-2.137-1.364c-0.906-0.425-1.794-0.913-2.685-1.393   c-0.536-0.289-1.23-0.597-1.669-0.966c-0.482-0.405-1.321-0.793-1.546-1.291c-0.095-0.2-0.095-0.571-0.147-0.796   c-0.147-0.635,0.036-1.422,0.126-2.053c0.196-1.391,0.083-2.687,0.096-4.081c0.006-0.683,0.121-1.359,0.156-2.041   c0.043-0.84-0.133-1.664-0.187-2.498c-0.083-1.28-0.181-2.634-0.155-3.914c0.012-0.604,0.183-1.264,0.054-1.861   c-0.093-0.429-0.16-0.896-0.149-1.335c0.033-1.258-0.066-2.51-0.152-3.777c-0.091-1.331,0.036-2.665-0.043-3.96   c-0.14-2.296-0.16-4.526-0.234-6.856c-0.021-0.655-0.052-1.33-0.01-1.984c0.032-0.459,0.189-0.836,0.1-1.293   c-0.101-0.518,0.064-1.144,0.071-1.67c0.011-0.831-0.005-1.662-0.01-2.493c-0.017-2.966,0.295-5.921,0.234-8.89   c-0.02-0.954-0.232-2.339,0.592-2.981c0.668-0.001,1.485,0.992,2.03,1.349c0.395,0.258,0.84,0.452,1.23,0.745   c0.358,0.268,0.774,0.458,1.138,0.688c0.256,0.162,0.742,0.276,0.934,0.506c0.279,0.337,1.272,0.738,1.688,0.842   c0.534,0.128,1.168,0.721,1.692,1.012c1.403,0.776,3,1.379,4.482,2.106c0.967,0.464,2.034,0.969,2.96,1.516   c0.432,0.251,0.965,0.641,1.446,0.76c0.574,0.142,1.069,0.675,1.684,0.839c0.362,0.096,0.634,0.336,0.992,0.477   c0.337,0.133,0.654,0.345,0.953,0.451c0.367,0.13,0.808,0.343,1.184,0.378c0.96,0.09,2.016,0.818,2.959,1.137   c0.529,0.177,1.281,0.323,1.692,0.758C50.492,31.441,50.433,32.419,50.287,33.233C50.272,33.313,50.311,33.096,50.287,33.233z    M79.768,24.905c-0.15,1.138-0.05,2.194-0.049,3.348c0.001,1.606-0.086,3.212-0.036,4.818c0.023,0.743,0.1,1.485,0.102,2.229   c0,0.325,0.196,1.695-0.038,1.878c-0.209,0.163-0.062,1.266-0.065,1.525c-0.007,0.598-0.162,1.208-0.14,1.796   c0.04,1.077-0.166,2.377-0.18,3.524c-0.019,1.622-0.008,3.245-0.005,4.868c0.005,2.939-0.174,5.881,0,8.814   c0.08,1.353,0.058,2.709,0.073,4.064c0.007,0.671,0.021,1.343,0.062,2.013c0.033,0.531-0.132,1.693,0.138,2.136   c0.107,0.176-0.069,0.923-0.069,1.182c0,0.678,0.016,1.357-0.014,2.034c-0.042,0.963,0.109,2.476-0.803,3.015   c-0.621,0.369-1.335,0.549-1.964,0.93c-0.687,0.416-1.869,0.975-2.308,1.648c-0.215,0.329-0.875,0.337-1.047,0.687   c-0.154,0.314-1.26,0.85-1.605,1.057c-3.115,1.914-6.962,2.765-10.304,4.073c-0.339,0.135-0.674,0.283-1.013,0.416   c-0.375,0.148-0.89,0.515-1.266,0.558c-0.265,0.03-0.636,0.224-0.93,0.298c-0.388,0.057-0.916,0.312-1.324,0.431   c-0.56,0.164-2.279,1.033-2.43,0.168c-0.18-1.03-0.387-2.63-0.101-3.631c0.326-1.141,0.252-2.564,0.314-3.749   c0.058-1.112,0.072-2.081,0.145-3.186c0.197-2.765,0.165-5.564,0.357-8.341c0.191-2.757-0.239-5.529-0.024-8.294   c0.085-1.096,0.386-2.235,0.283-3.328c-0.139-1.479,0.214-2.951,0.131-4.446c-0.032-0.583-0.315-1.215-0.279-1.791   c0.026-0.414,0.055-0.955,0.028-1.434c-0.067-1.183-0.058-2.296-0.036-3.5c0.012-0.664,0.043-1.34-0.03-2.002   c-0.068-0.619,0.146-1.359-0.019-1.945c-0.094-0.333,0.086-0.889,0.109-1.271c0.025-0.405,0.016-0.771,0.022-1.144   c0.008-0.508-0.088-0.987-0.12-1.488c-0.026-0.403,0.11-0.708,0.112-1.071c0.005-0.693,0.559-0.708,1.158-0.725   c0.456-0.013,0.921-0.113,1.372-0.215c1.779-0.402,3.412-0.924,5.041-1.449c2.257-0.728,4.347-1.925,6.599-2.606   c0.964-0.291,1.735-1.061,2.591-1.374c0.626-0.229,1.24-0.606,1.802-0.908c0.901-0.483,1.835-0.883,2.717-1.466   c0.513-0.334,1.049-0.541,1.605-0.848c0.511-0.281,1.384-1.129,1.505-0.01C79.929,23.084,79.885,24.017,79.768,24.905   C79.696,25.452,79.88,24.05,79.768,24.905z"/><path class="st0" d="M28.087,36.09c4.503,0.889,8.884,2.421,13.405,3.224c1.25,0.222,2.525,0.302,3.757,0.614   c0.71,0.18,1.67-0.261,2.14-0.842c0.636-0.777,0.094-1.375-0.627-1.863c-0.134-0.088-1.37-0.616-1.382-0.551   c0.012-0.067-4.71-1.374-5.01-1.444c-2.402-0.565-4.739-1.409-7.146-1.936c-0.943-0.207-1.856-0.505-2.848-0.674   c-0.384-0.063-0.681-0.146-1.092-0.13c-0.232,0.009-0.557-0.033-0.775,0.078c-0.122,0.062-0.441,0.441-0.563,0.442   c-0.125,0.245-0.61,0.323-0.808,0.555c-0.151,0.177-0.383,0.641-0.39,0.876c-0.01,0.358-0.23,0.431,0,0.842   C27.061,35.839,27.468,35.971,28.087,36.09C28.139,36.1,27.655,36.007,28.087,36.09z"/><path class="st0" d="M57.866,40.187c0.363,2.048,2.889,0.602,4.186,0.243c2.471-0.684,4.954-1.48,7.399-2.256   c2.223-0.706,4.36-1.571,6.525-2.435c1.024-0.405,1.385-0.504,1.879-1.544c0.4-0.842,0.182-1.506-0.763-1.739   c-1.276-0.313-2.649,0.452-3.876,0.728c-2.077,0.468-4.12,1.155-6.196,1.732c-1.179,0.328-2.399,0.568-3.561,0.95   c-0.933,0.306-1.912,0.412-2.813,0.834c-0.912,0.426-1.608,0.678-2.317,1.425C58.162,38.849,57.705,39.395,57.866,40.187   C57.889,40.32,57.854,40.132,57.866,40.187z"/><path class="st0" d="M78.116,41.564c0.208-0.701-1.785-0.519-1.953-0.582c-0.205-0.077-1.196,0.344-1.39,0.435   c-0.694,0.323-1.549,0.413-2.198,0.77c-0.447,0.245-1.001,0.227-1.47,0.436c-0.621,0.278-1.244,0.541-1.879,0.786   c-2.18,0.84-4.394,1.612-6.59,2.402c-0.776,0.274-1.702,0.537-2.464,0.951c-0.38,0.203-0.772,0.502-1.088,0.793   c-0.368,0.339-0.197,0.825-0.488,1.2c-0.273,0.351-0.148,0.805-0.061,1.198c0.016,0.033,0.146,0.516,0.142,0.523   c-0.199,0.34,0.683,0.622,0.881,0.653c0.474,0.076,0.962-0.278,1.388-0.428c2.245-0.795,4.422-1.791,6.652-2.633   c2.265-0.855,4.59-1.68,6.745-2.789c0.366-0.188,3.055-1.273,3.05-1.546c-0.003-0.203,0.468-0.689,0.536-0.915   C78.07,42.393,77.998,41.959,78.116,41.564C78.167,41.391,78.075,41.7,78.116,41.564z"/><path class="st0" d="M57.716,59.588c0.464,1.561,3.478,0.029,4.59-0.306c2.467-0.741,5.082-1.395,7.483-2.323   c0.981-0.379,2-0.623,2.98-0.999c1.185-0.455,2.319-1.045,3.535-1.414c0.701-0.212,1.294-1.085,1.398-1.826   c0.144-0.994-0.63-1.226-1.499-1.272c-0.355-0.013-0.471,0.017-0.799,0.082c-0.122,0.023-0.574,0.24-0.65,0.2   c-0.207-0.076-1.96,0.379-2.256,0.557c-0.194,0.117-0.665,0.184-0.889,0.213c-0.677,0.087-1.264,0.332-1.91,0.539   c-1.218,0.392-2.449,0.744-3.684,1.079c-2.121,0.576-4.2,1.052-6.223,1.845c-0.361,0.144-0.658,0.227-1.002,0.452   c-0.194,0.127-0.494,0.259-0.624,0.466c-0.072,0.115-0.151,0.606-0.254,0.67c0.022,0.309-0.395,0.603-0.413,0.959   C57.478,58.937,57.611,59.209,57.716,59.588z"/><path class="st0" d="M77.196,62.89c-1.264-0.366-2.664,0.34-3.903,0.566c-2.094,0.381-4.164,0.982-6.263,1.472   c-2.035,0.475-4.16,0.778-6.119,1.397c-0.717,0.226-2.069,0.537-2.526,1.195c-0.216,0.318-0.198,0.713-0.477,0.999   c-0.354,0.363-0.023,0.918-0.222,1.22c-0.038,0.057,0.068,0.51,0.089,0.575c0.126,0.374,0.604,0.707,1.028,0.693   c0.902-0.03,1.868-0.492,2.741-0.708c2.482-0.614,4.952-1.294,7.432-1.924c2.376-0.604,4.659-1.44,6.969-2.252   c1.04-0.362,1.404-0.445,1.941-1.464C78.32,63.835,78.131,63.162,77.196,62.89C77.062,62.851,77.64,63.019,77.196,62.89z"/><path class="st0" d="M45.439,67.165c-0.283-0.213-0.398-0.253-0.703-0.386c-0.122-0.053-0.599-0.12-0.65-0.205   c-0.059-0.14-1.881-0.806-2.172-0.824c-0.227-0.014-0.652-0.226-0.852-0.33c-0.607-0.313-1.229-0.446-1.878-0.641   c-1.225-0.369-2.438-0.78-3.644-1.206c-2.072-0.731-4.054-1.524-6.169-2.019c-0.38-0.086-0.67-0.188-1.081-0.198   c-0.232-0.005-0.553-0.067-0.778,0.029c-0.128,0.054-0.466,0.413-0.59,0.407c-0.14,0.237-0.629,0.284-0.841,0.504   c-0.162,0.168-0.421,0.615-0.443,0.85c-0.033,0.357-0.256,0.416-0.052,0.84c0.226,0.469,0.467,0.64,0.967,0.8   c0.902,0.288,1.822,0.523,2.72,0.832c2.431,0.837,4.952,1.653,7.429,2.351c1.113,0.313,2.226,0.685,3.349,0.957   c1.234,0.299,2.501,0.458,3.712,0.846c0.698,0.224,1.683-0.157,2.189-0.708C46.633,68.326,46.128,67.697,45.439,67.165   C45.376,67.117,45.591,67.282,45.439,67.165z"/><path class="st0" d="M47.913,47.284c-1.423-0.832-3.335-1.402-5.017-1.817c-0.902-0.222-1.877-0.596-2.776-0.589   c-0.541,0.004-1.23-0.314-1.777-0.427c-0.53-0.11-1.154-0.256-1.694-0.426c-1.625-0.553-3.493-1.608-5.269-1.772   c-1.861-0.172-4.467-1.517-5.576,0.651c-0.258,0.504-0.275,1.777,0.285,2.07c0.92,0.483,1.919,0.762,2.905,0.899   c2.514,0.349,4.853,1.339,7.319,1.894c1.597,0.359,3.054,0.932,4.665,1.163c1.2,0.173,2.324,0.544,3.498,0.76   c1.086,0.199,2.48,0.439,3.383-0.397C48.29,48.895,48.493,47.642,47.913,47.284C47.87,47.259,47.931,47.295,47.913,47.284z"/><path class="st0" d="M46.445,56.996c-1.448-0.735-3.125-1.161-4.7-1.724c-1.452-0.558-2.919-1.093-4.461-1.461   c-1.084-0.259-2.161-0.495-3.235-0.794c-1.002-0.277-1.989-0.662-2.916-0.816c-0.676-0.113-1.412-0.14-2.053-0.403   c-0.417-0.171-0.68-0.332-1.129-0.286c-0.369,0.037-0.832,0.077-1.088,0.387c-0.239,0.289-0.756,0.334-1.049,0.607   c-0.435,0.407-0.391,0.852-0.434,1.358c-0.102,1.082,1.707,1.176,2.358,1.376c0.943,0.283,1.982,0.668,2.986,0.933   c0.44,0.116,0.959,0.269,1.344,0.394c0.607,0.167,1.332,0.137,1.911,0.369c1.127,0.475,2.375,0.556,3.55,0.911   c0.804,0.243,1.597,0.549,2.419,0.784c1.032,0.295,2.017,0.586,3.036,0.864c0.946,0.258,2.374,0.589,3.272,0.061   C47.256,58.97,47.628,57.598,46.445,56.996C46.191,56.867,46.978,57.267,46.445,56.996z"/></g></svg>